<svg width="104" height="104" viewBox="0 0 104 104" fill="none" xmlns="http://www.w3.org/2000/svg">
<rect x="3" y="3" width="98" height="98" fill="white" stroke="#FFB71B" stroke-width="6"/>
<path d="M53.9359 32.6489L75.732 70.4007H32.1399L53.9359 32.6489Z" fill="#C4C4C4"/>
<path d="M54.4837 23.4299L82.6059 71.8626C83.7176 73.7772 82.3362 76.1767 80.1222 76.1767H23.8778C21.6638 76.1767 20.2824 73.7772 21.3941 71.8626L49.5163 23.4299C50.6233 21.5234 53.3767 21.5234 54.4837 23.4299Z" stroke="#2B2831" stroke-width="2"/>
<path d="M54.5952 31.3724L75.7229 67.7995C76.8829 69.7995 75.4399 72.3047 73.1278 72.3047H30.8723C28.5603 72.3047 27.1172 69.7995 28.2772 67.7995L49.405 31.3724C50.561 29.3792 53.4392 29.3792 54.5952 31.3724Z" fill="#FFB71B" stroke="#2B2831" stroke-width="2"/>
<path fill-rule="evenodd" clip-rule="evenodd" d="M47.7591 46.3137C46.3014 46.3137 45.1156 47.4996 45.1156 48.9572C45.1156 50.4149 46.3014 51.6007 47.7591 51.6007C49.2167 51.6007 50.4026 50.4149 50.4026 48.9572C50.4026 47.4997 49.2167 46.3137 47.7591 46.3137ZM41.9672 55.9324C41.3395 55.5559 40.5243 55.7614 40.1506 56.391L34.7628 65.4654C34.2407 66.345 34.8758 67.4619 35.8993 67.4619H46.4373C47.1673 67.4619 47.7591 66.8702 47.7591 66.1402C47.7591 61.955 45.5573 58.0866 41.9672 55.9324ZM38.2213 64.8184L41.6963 58.9655C43.4904 60.4322 44.6832 62.5333 45.0188 64.8184H38.2213ZM58.329 60.3058L63.2289 65.2057C63.7451 65.7218 63.7451 66.5587 63.2288 67.0751C62.7126 67.5912 61.8757 67.5911 61.3596 67.0751L56.0726 61.788C55.8247 61.5401 55.6854 61.2038 55.6854 60.8534V58.7573L53.0419 61.4008V66.1404C53.0419 66.8703 52.4501 67.4621 51.7202 67.4621C50.9902 67.4621 50.3984 66.8703 50.3984 66.1404V60.8534C50.3984 60.5028 50.5377 60.1667 50.7856 59.9187L55.138 55.5663L52.2979 52.7261L50.3306 58.6278C50.0998 59.3203 49.3514 59.6946 48.6587 59.4637C47.9662 59.2328 47.5918 58.4843 47.8227 57.7918L50.4576 49.8871C50.623 49.3547 51.1154 48.9573 51.7202 48.9574H59.6508C60.3807 48.9574 60.9725 49.5492 60.9725 50.2792V52.9227C60.9725 53.6526 60.3807 54.2444 59.6508 54.2444C58.9208 54.2444 58.329 53.6526 58.329 52.9227V51.6009H54.9112L57.9417 54.6314C58.1967 54.8863 58.3292 55.2345 58.329 55.5667V60.3058Z" fill="#2B2831"/>
</svg>
