<svg width="104" height="104" viewBox="0 0 104 104" fill="none" xmlns="http://www.w3.org/2000/svg">
<rect x="3" y="3" width="98" height="98" fill="white" stroke="#FFB71B" stroke-width="6"/>
<rect x="21" y="21" width="62" height="62" rx="7" stroke="#2B2831" stroke-width="2"/>
<rect x="33.8" y="33.8" width="36.4" height="36.4" rx="3" fill="#FFB71B" stroke="#2B2831" stroke-width="2"/>
<circle cx="28.0001" cy="28" r="1.9" fill="#FFB71B" stroke="#2B2831"/>
<circle cx="40.0001" cy="28" r="1.9" fill="#FFB71B" stroke="#2B2831"/>
<circle cx="52.0001" cy="28" r="1.9" fill="#FFB71B" stroke="#2B2831"/>
<circle cx="64.0001" cy="28" r="1.9" fill="#FFB71B" stroke="#2B2831"/>
<circle cx="76.0001" cy="28" r="1.9" fill="#FFB71B" stroke="#2B2831"/>
<circle cx="28.0001" cy="76" r="1.9" fill="#FFB71B" stroke="#2B2831"/>
<circle cx="28.0001" cy="64" r="1.9" fill="#FFB71B" stroke="#2B2831"/>
<circle cx="28.0001" cy="52" r="1.9" fill="#FFB71B" stroke="#2B2831"/>
<circle cx="28.0001" cy="40" r="1.9" fill="#FFB71B" stroke="#2B2831"/>
<circle cx="76.0001" cy="64" r="1.9" fill="#FFB71B" stroke="#2B2831"/>
<circle cx="76.0001" cy="52" r="1.9" fill="#FFB71B" stroke="#2B2831"/>
<circle cx="76.0001" cy="40" r="1.9" fill="#FFB71B" stroke="#2B2831"/>
<circle cx="40.0001" cy="76" r="1.9" fill="#FFB71B" stroke="#2B2831"/>
<circle cx="52.0001" cy="76" r="1.9" fill="#FFB71B" stroke="#2B2831"/>
<circle cx="64.0001" cy="76" r="1.9" fill="#FFB71B" stroke="#2B2831"/>
<circle cx="76.0001" cy="76" r="1.9" fill="#FFB71B" stroke="#2B2831"/>
<path d="M63.3806 41.027C62.1619 39.8082 61.753 39.2 60.6763 39.2C60.1107 39.2 59.5788 39.4202 59.1787 39.8202L45.0209 53.9777L45.021 45.0247C45.0209 44.2472 44.7182 43.5162 44.1686 42.9666C42.3223 41.1205 39.2002 42.4623 39.2002 45.0245L39.2 61.0895C39.2 62.6971 40.5007 63.9997 42.1103 63.9997L52.4444 63.9998C52.8942 63.9998 53.2589 63.6352 53.2589 63.1853C53.2589 62.7355 52.8942 62.3708 52.4444 62.3708L42.1102 62.3707C41.4024 62.3707 40.8292 61.7979 40.8292 61.0896L40.8294 45.0246C40.8294 43.8787 42.2168 43.3188 43.0167 44.1186C43.2586 44.3607 43.392 44.6825 43.392 45.0248L43.3919 55.9443C43.3919 56.6667 44.2697 57.033 44.7824 56.5203L60.3308 40.9722C60.5217 40.7813 60.8309 40.7811 61.022 40.9722L62.2288 42.1788C62.4194 42.3694 62.4194 42.6795 62.2289 42.87L46.6806 58.4178C46.1698 58.9287 46.5312 59.8084 47.2565 59.8084H58.176C58.8823 59.8084 59.4571 60.3832 59.4571 61.0899C59.4572 61.798 58.8843 62.371 58.1758 62.371L52.1215 62.3708C51.6717 62.3708 51.307 62.7355 51.307 63.1853C51.307 63.6352 51.6717 63.9998 52.1215 63.9998L58.176 64C59.7848 63.9997 61.0866 62.6983 61.0863 61.0896C61.0863 59.4849 59.7808 58.1792 58.176 58.1792H49.2229L63.3806 44.022C64.2064 43.1963 64.2064 41.8528 63.3806 41.027Z" fill="#2B2831"/>
</svg>
