<svg width="659" height="76" fill="none" xmlns="http://www.w3.org/2000/svg"><path d="M141.304 46.608V62.12h-8.4V54H105.24v8.12h-8.4l.056-15.512h1.568c2.352-.075 4.013-1.792 4.984-5.152.971-3.36 1.568-8.157 1.792-14.392l.448-12.264h30.128v31.808h5.488zm-28.056-18.704c-.187 4.667-.579 8.587-1.176 11.76-.597 3.136-1.512 5.45-2.744 6.944h17.528V22.192h-13.44l-.168 5.712zm47.22 26.544c-3.173 0-6.029-.653-8.568-1.96-2.501-1.344-4.461-3.192-5.88-5.544-1.418-2.352-2.128-5.021-2.128-8.008 0-2.987.71-5.656 2.128-8.008 1.419-2.352 3.379-4.181 5.88-5.488 2.539-1.344 5.395-2.016 8.568-2.016 3.174 0 6.011.672 8.512 2.016 2.502 1.307 4.462 3.136 5.88 5.488 1.419 2.352 2.128 5.021 2.128 8.008 0 2.987-.709 5.656-2.128 8.008-1.418 2.352-3.378 4.2-5.88 5.544-2.501 1.307-5.338 1.96-8.512 1.96zm0-7.168c2.24 0 4.07-.747 5.488-2.24 1.456-1.53 2.184-3.565 2.184-6.104s-.728-4.555-2.184-6.048c-1.418-1.53-3.248-2.296-5.488-2.296s-4.088.765-5.544 2.296c-1.456 1.493-2.184 3.51-2.184 6.048 0 2.539.728 4.573 2.184 6.104 1.456 1.493 3.304 2.24 5.544 2.24zm40.281-23.856c2.8 0 5.339.653 7.616 1.96 2.315 1.27 4.125 3.08 5.432 5.432 1.307 2.315 1.96 5.021 1.96 8.12 0 3.099-.653 5.824-1.96 8.176a14.066 14.066 0 01-5.432 5.432c-2.277 1.27-4.816 1.904-7.616 1.904-3.845 0-6.869-1.213-9.072-3.64v14.056h-8.736V23.872h8.344v3.472c2.165-2.613 5.32-3.92 9.464-3.92zm-1.512 23.856c2.24 0 4.069-.747 5.488-2.24 1.456-1.53 2.184-3.565 2.184-6.104s-.728-4.555-2.184-6.048c-1.419-1.53-3.248-2.296-5.488-2.296s-4.088.765-5.544 2.296c-1.419 1.493-2.128 3.51-2.128 6.048 0 2.539.709 4.573 2.128 6.104 1.456 1.493 3.304 2.24 5.544 2.24zm41.851 7.392c-3.995 0-7.616-.859-10.864-2.576-3.211-1.755-5.75-4.163-7.616-7.224-1.83-3.099-2.744-6.59-2.744-10.472 0-3.883.914-7.355 2.744-10.416 1.866-3.099 4.405-5.507 7.616-7.224 3.248-1.755 6.888-2.632 10.92-2.632 3.397 0 6.458.597 9.184 1.792 2.762 1.195 5.077 2.912 6.944 5.152l-5.824 5.376c-2.651-3.061-5.936-4.592-9.856-4.592-2.427 0-4.592.541-6.496 1.624a11.34 11.34 0 00-4.48 4.424c-1.046 1.904-1.568 4.07-1.568 6.496 0 2.427.522 4.592 1.568 6.496a11.733 11.733 0 004.48 4.48c1.904 1.045 4.069 1.568 6.496 1.568 3.92 0 7.205-1.55 9.856-4.648l5.824 5.376c-1.867 2.277-4.182 4.013-6.944 5.208-2.763 1.195-5.843 1.792-9.24 1.792zm45.916-23.632h-10.192V54h-8.68V31.04H257.94v-7.168h29.064v7.168zm22.409-7.616c2.8 0 5.339.653 7.616 1.96 2.315 1.27 4.125 3.08 5.432 5.432 1.307 2.315 1.96 5.021 1.96 8.12 0 3.099-.653 5.824-1.96 8.176a14.066 14.066 0 01-5.432 5.432c-2.277 1.27-4.816 1.904-7.616 1.904-3.845 0-6.869-1.213-9.072-3.64v14.056h-8.736V23.872h8.344v3.472c2.165-2.613 5.32-3.92 9.464-3.92zm-1.512 23.856c2.24 0 4.069-.747 5.488-2.24 1.456-1.53 2.184-3.565 2.184-6.104s-.728-4.555-2.184-6.048c-1.419-1.53-3.248-2.296-5.488-2.296s-4.088.765-5.544 2.296c-1.419 1.493-2.128 3.51-2.128 6.048 0 2.539.709 4.573 2.128 6.104 1.456 1.493 3.304 2.24 5.544 2.24zm36.755 7.168c-3.174 0-6.03-.653-8.568-1.96-2.502-1.344-4.462-3.192-5.88-5.544-1.419-2.352-2.128-5.021-2.128-8.008 0-2.987.709-5.656 2.128-8.008 1.418-2.352 3.378-4.181 5.88-5.488 2.538-1.344 5.394-2.016 8.568-2.016 3.173 0 6.01.672 8.512 2.016 2.501 1.307 4.461 3.136 5.88 5.488 1.418 2.352 2.128 5.021 2.128 8.008 0 2.987-.71 5.656-2.128 8.008-1.419 2.352-3.379 4.2-5.88 5.544-2.502 1.307-5.339 1.96-8.512 1.96zm0-7.168c2.24 0 4.069-.747 5.488-2.24 1.456-1.53 2.184-3.565 2.184-6.104s-.728-4.555-2.184-6.048c-1.419-1.53-3.248-2.296-5.488-2.296s-4.088.765-5.544 2.296c-1.456 1.493-2.184 3.51-2.184 6.048 0 2.539.728 4.573 2.184 6.104 1.456 1.493 3.304 2.24 5.544 2.24zm22.528-23.408h8.68v17.92l14.672-17.92h8.008V54h-8.68V36.08L375.248 54h-8.064V23.872zm15.12-3.248c-6.57 0-9.874-2.893-9.912-8.68h5.712c.038 1.307.392 2.333 1.064 3.08.71.71 1.736 1.064 3.08 1.064s2.371-.355 3.08-1.064c.747-.747 1.12-1.773 1.12-3.08h5.824c-.037 5.787-3.36 8.68-9.968 8.68zM443.286 54l-.056-23.464-11.536 19.32h-4.032l-11.536-18.872V54h-8.512V14.8h7.504l14.672 24.36 14.448-24.36h7.504l.056 39.2h-8.512zm31.69.448c-3.173 0-6.029-.653-8.568-1.96-2.501-1.344-4.461-3.192-5.88-5.544-1.419-2.352-2.128-5.021-2.128-8.008 0-2.987.709-5.656 2.128-8.008 1.419-2.352 3.379-4.181 5.88-5.488 2.539-1.344 5.395-2.016 8.568-2.016s6.011.672 8.512 2.016c2.501 1.307 4.461 3.136 5.88 5.488 1.419 2.352 2.128 5.021 2.128 8.008 0 2.987-.709 5.656-2.128 8.008-1.419 2.352-3.379 4.2-5.88 5.544-2.501 1.307-5.339 1.96-8.512 1.96zm0-7.168c2.24 0 4.069-.747 5.488-2.24 1.456-1.53 2.184-3.565 2.184-6.104s-.728-4.555-2.184-6.048c-1.419-1.53-3.248-2.296-5.488-2.296s-4.088.765-5.544 2.296c-1.456 1.493-2.184 3.51-2.184 6.048 0 2.539.728 4.573 2.184 6.104 1.456 1.493 3.304 2.24 5.544 2.24zm22.529-23.408h8.68v11.76h13.104v-11.76h8.736V54h-8.736V42.744h-13.104V54h-8.68V23.872zM561.7 31.04h-10.192V54h-8.68V31.04h-10.192v-7.168H561.7v7.168zm16.36-7.616c4.667 0 8.251 1.12 10.752 3.36 2.502 2.203 3.752 5.544 3.752 10.024V54h-8.176v-3.752c-1.642 2.8-4.704 4.2-9.184 4.2-2.314 0-4.33-.392-6.048-1.176-1.68-.784-2.968-1.867-3.864-3.248-.896-1.381-1.344-2.95-1.344-4.704 0-2.8 1.046-5.003 3.136-6.608 2.128-1.605 5.395-2.408 9.8-2.408h6.944c0-1.904-.578-3.36-1.736-4.368-1.157-1.045-2.893-1.568-5.208-1.568-1.605 0-3.192.261-4.76.784-1.53.485-2.837 1.157-3.92 2.016l-3.136-6.104c1.643-1.157 3.603-2.053 5.88-2.688a26.778 26.778 0 017.112-.952zm-.672 25.144c1.494 0 2.819-.336 3.976-1.008 1.158-.71 1.979-1.736 2.464-3.08V41.4h-5.992c-3.584 0-5.376 1.176-5.376 3.528 0 1.12.43 2.016 1.288 2.688.896.635 2.11.952 3.64.952zm52.613-5.992h-4.2V54h-8.624V42.576h-4.2L606.593 54h-10.304l9.464-15.568-8.792-14.56h9.24l6.664 11.704h4.312V23.872h8.624v11.704h4.256l6.72-11.704h9.24l-8.792 14.56L646.745 54h-10.36l-6.384-11.424z" fill="#fff"/><path fill-rule="evenodd" clip-rule="evenodd" d="M7.125 0A7.125 7.125 0 000 7.125v33.75A7.125 7.125 0 007.125 48H12V19.125a7.125 7.125 0 017.125-7.124H48V7.125A7.125 7.125 0 0040.875 0H7.125zM24 64.874v-4.873h28.875A7.125 7.125 0 0060 52.876V24h4.875A7.125 7.125 0 0172 31.125v33.75a7.125 7.125 0 01-7.125 7.124h-33.75A7.125 7.125 0 0124 64.876zm24-23.999V24H31.125A7.125 7.125 0 0024 31.125V48h16.875A7.125 7.125 0 0048 40.875z" fill="#FFB71B"/></svg>