<svg width="56" height="51" fill="none" xmlns="http://www.w3.org/2000/svg"><path d="M21.438 21.875a1.094 1.094 0 10-.002-2.188 1.094 1.094 0 00.002 2.188z" fill="#2B2831"/><path d="M28 17.5c-.848 0-1.7.076-2.535.226a1.094 1.094 0 00.387 2.153c.707-.127 1.43-.192 2.148-.192 6.634 0 12.031 5.398 12.031 12.032S34.634 43.75 28 43.75s-12.031-5.397-12.031-12.031c0-2.565.8-5.014 2.311-7.082a1.094 1.094 0 00-1.766-1.291 14.094 14.094 0 00-2.733 8.373c0 7.84 6.379 14.218 14.219 14.218S42.219 39.56 42.219 31.72 35.84 17.5 28 17.5z" fill="#2B2831"/><path d="M54.391 32.657l-2.766-3.673V20.78c0-6.634-5.397-12.031-12.031-12.031h-7.89l.73-2.19a3.284 3.284 0 003.222-3.279A3.285 3.285 0 0032.375 0a3.285 3.285 0 00-3.281 3.281c0 1.05.496 1.986 1.266 2.587L29.4 8.75h-2.8l-.96-2.882a3.276 3.276 0 001.266-2.587A3.285 3.285 0 0023.625 0a3.285 3.285 0 00-3.281 3.281c0 1.79 1.44 3.248 3.222 3.28l.73 2.189h-7.89c-6.634 0-12.031 5.397-12.031 12.031v8.242l-2.763 3.629-.008.011C.54 34.1 0 35.623 0 37.188c0 3.654 3.078 7.03 8.667 9.507C13.933 49.028 20.8 50.312 28 50.312c7.201 0 14.067-1.284 19.333-3.617C52.922 44.219 56 40.842 56 37.187c0-1.564-.54-3.087-1.609-4.53zM32.375 2.187a1.095 1.095 0 010 2.188 1.095 1.095 0 010-2.188zm-9.844 1.094a1.095 1.095 0 012.188 0 1.095 1.095 0 01-2.188 0zm-6.125 7.656h23.188c5.428 0 9.843 4.417 9.843 9.844v5.026a19.343 19.343 0 01-2.214-6.123 7.956 7.956 0 00-7.84-6.559H16.087c-.716 0-1.426.1-2.111.296-1.327.382-2.518 1.176-3.445 2.297A8.276 8.276 0 008.8 19.432a22.004 22.004 0 01-2.238 6.273V20.78c0-5.427 4.417-9.843 9.844-9.843zm30.04 33.758c-4.92 2.18-11.643 3.43-18.446 3.43-6.803 0-13.526-1.25-18.447-3.43-4.68-2.074-7.366-4.81-7.366-7.508 0-1.083.394-2.166 1.17-3.216l3.054-4.012.05-.064a24.202 24.202 0 004.488-10.051 6.084 6.084 0 011.268-2.732c.645-.78 1.462-1.33 2.363-1.588a5.45 5.45 0 011.507-.211h23.297c2.801 0 5.192 2 5.686 4.757a21.534 21.534 0 003.986 9.14l3.582 4.755c.78 1.052 1.175 2.136 1.175 3.222 0 2.698-2.685 5.434-7.366 7.508z" fill="#2B2831"/></svg>