<svg width="56" height="56" fill="none" xmlns="http://www.w3.org/2000/svg"><g clip-path="url(#clip0_1_348)"><path d="M4.51 29.163a.82.82 0 00.8-1.008c-.077-.33-.237-1.014-.012-1.31.16-.21.587-.337 1.201-.358 2.438-.086 3.186-1.212 3.908-2.302.388-.583.788-1.187 1.518-1.752.718-.556 1.025-.567 1.075-.564.046.048.366.46.248 2.267-.062.949.12 1.646.56 2.13.614.68 1.508.71 2.227.734.323.011.628.022.85.084.698.194 1.31.132 1.802.083.303-.03.616-.062.683.011.327.357.702.531 1.112.522.774-.022 1.299-.661 2.093-1.629l.226-.275a.6.6 0 01.092-.093c.113.025.365.178.535.281.607.37 1.523.926 2.665.437 1.257-.538 1.582-.937 2.197-1.789.223-.308.5-.692.922-1.195.743-.886 1.818-1.143 2.262-.938.07.032.284.131.183.723-.145.846.019 1.483.485 1.892.807.71 2.066.323 2.985.041.21-.065.449-.138.553-.153.08-.007.319.05.478.09.795.197 2.45.605 3.271-1.742.555-1.584.96-1.643 2.165-1.82a31 31 0 00.398-.06c2.672-.428 3.17-2.177 3.572-3.583.114-.4.221-.776.37-1.121.245-.564.696-.853 1.267-1.22.734-.47 1.647-1.056 2.032-2.364.184-.627.712-.987.996-1.079-.008.16-.061.445-.236.876-.618 1.515-.745 2.35-.453 2.983.267.579.8.755 1.12.861.123.04.239.08.295.118a1.701 1.701 0 00.94-1.345 2.654 2.654 0 00-.72-.33 4.962 4.962 0 01-.143-.05c.003-.161.064-.597.48-1.618.48-1.177.478-2.067-.004-2.646-.356-.429-.92-.6-1.544-.471-.872.18-1.944 1.007-2.306 2.238-.212.72-.686 1.025-1.343 1.446-.676.434-1.443.926-1.886 1.948-.192.444-.32.891-.443 1.324-.37 1.295-.613 2.15-2.253 2.412-.13.021-.256.04-.377.057-1.334.196-2.593.381-3.475 2.902-.329.939-.561.881-1.33.691-.356-.088-.724-.178-1.112-.12a5.84 5.84 0 00-.793.207c-.31.095-1.096.337-1.395.29a1.34 1.34 0 01.023-.378c.196-1.146-.22-2.076-1.11-2.489-1.235-.571-3.084.032-4.21 1.374-.46.548-.756.958-.994 1.288-.502.695-.621.86-1.513 1.242-.332.142-.597.015-1.166-.33-.563-.343-1.735-1.055-2.745.168l-.23.28c-.278.339-.61.745-.823.94-.607-.573-1.354-.497-1.96-.437-.41.041-.797.08-1.198-.031-.41-.115-.829-.129-1.234-.143-.43-.014-.919-.031-1.067-.195-.056-.061-.181-.275-.139-.921.088-1.342.068-3.198-1.116-3.827-1.14-.606-2.427.391-2.85.719-.942.73-1.461 1.513-1.879 2.142-.647.976-1.004 1.513-2.598 1.569-1.146.04-1.97.377-2.447 1.002-.697.91-.417 2.106-.282 2.68a.82.82 0 00.798.634zm49.863-5.137a24.325 24.325 0 00-.676-.793c-.994-1.132-1.291-1.558-1.003-2.264.065-.16.123-.332.171-.51a.82.82 0 00-1.583-.431 2.809 2.809 0 01-.108.322c-.695 1.705.314 2.854 1.29 3.965.207.237.423.482.632.742.722.893 1.202 2.355 1.266 3.05-1.698-.44-2.645-1.227-2.819-2.341l-.045-.296c-.2-1.315-.407-2.674-1.56-2.962-.724-.181-1.657.06-2.27.584a2.084 2.084 0 00-.737 1.815c.02.22.05.452.081.697.11.856.276 2.15-.202 2.476-1.18.807-1.307 2.063-1.441 3.393-.03.288-.059.586-.1.893-.117.878.198 1.344.483 1.58.718.596 1.748.255 2.575-.018.184-.061.358-.119.486-.15.297-.075.717.45 1.318 1.652.176.352.371.654.543.92.57.879 1.019 1.573.514 3.944-.22 1.033-.54 1.372-.643 1.427-.078-.051-.22-.285-.134-.565.364-1.184.355-2.102-.026-2.73a1.606 1.606 0 00-1.118-.758c-.488-.088-.795-.021-1.133.249-.086.068-.313.25-1.459.445-1.286.22-1.535.015-2.136-.477-.274-.224-.614-.503-1.086-.775-.799-.461-1.379-.336-1.724-.15-1.013.545-1.156 2.096-1.305 4.581-.021.35-.096.594-.211.687-.261.211-1.093.084-1.76-.017-.794-.121-1.693-.258-2.513-.07-1.116.255-1.923-.035-2.57-.269-.386-.139-.718-.258-1.074-.258-.857 0-1.094.832-1.195 1.188-.035.123-.1.348-.153.42-.04.006-.19.016-.518-.099-1.66-.583-2.651.039-3.308.45-.353.222-.564.348-.79.348-.739 0-2.508-.188-2.978-1.926-.47-1.743-1.828-1.875-2.558-1.947a7.178 7.178 0 01-.257-.028c-.293-1.708-2.07-1.79-4.297-1.894-1.471-.069-2.149.328-2.34 1.368a2.231 2.231 0 01-.022.112.886.886 0 01-.182.063c-1.035.258-2.1-1.05-2.228-1.447-.218-.675-.98-1.738-3.625-1.266-1.473.263-1.568 1.702-1.62 2.476-.007.113-.017.26-.03.383-.997.086-1.458 1.129-1.77 1.875-.22-.753-.661-1.764-2.003-2.506-.347-.192-.764-.507-.784-.924a.785.785 0 01.172-.514c.604.015 2.393-.04 3.138-1.169.313-.473.545-1.292-.123-2.505a2.913 2.913 0 01-.343-1.906.82.82 0 00-1.623-.245 4.558 4.558 0 00.53 2.943c.206.375.277.677.19.81-.231.35-1.319.478-1.81.43-.77-.077-1.431.671-1.663 1.415-.141.452-.448 2.012 1.522 3.1.977.54 1.148 1.219 1.313 1.874.132.521.33 1.308 1.174 1.477 1.05.21 1.5-.871 1.799-1.587.116-.28.328-.786.478-.928.44.026.738-.141.912-.29.478-.406.521-1.053.559-1.625.053-.802.123-.942.27-.969 1.189-.212 1.72-.016 1.776.157.364 1.124 2.172 3.036 4.187 2.532 1.206-.3 1.35-1.09 1.42-1.47v-.005c.104-.018.301-.036.65-.02 1.04.048 1.939.1 2.425.257.316.101.324.176.341.355.115 1.149 1.189 1.254 1.705 1.304.681.067.965.119 1.133.742.787 2.912 3.691 3.138 4.562 3.138.709 0 1.237-.331 1.662-.598.59-.37.978-.613 1.892-.292.737.259 1.334.262 1.823.008.606-.314.82-.912.94-1.322l.164.059c.76.273 1.907.686 3.492.324.517-.118 1.22-.01 1.9.093 1.09.166 2.215.337 3.04-.33.491-.397.766-1.024.817-1.864.058-.963.162-2.704.425-3.181.036.014.085.037.146.073.356.205.615.417.866.623.863.707 1.57 1.147 3.452.825 1.221-.208 1.733-.444 2.05-.663.05.135.09.548-.158 1.358-.237.769-.04 1.622.504 2.173.448.454 1.061.625 1.641.456.601-.175 1.402-.78 1.804-2.667.647-3.034-.059-4.124-.74-5.178a7.578 7.578 0 01-.454-.762c-.55-1.099-1.47-2.938-3.183-2.51-.188.046-.39.113-.603.184-.23.076-.654.216-.922.256a1.21 1.21 0 01.005-.043c.044-.334.076-.644.106-.945.125-1.234.208-1.843.735-2.204 1.306-.894 1.073-2.711.903-4.038-.03-.23-.057-.447-.075-.638a.448.448 0 01.17-.42 1.17 1.17 0 01.764-.246c.164.222.291 1.061.377 1.624l.046.302c.207 1.328 1.15 3.061 4.464 3.782.573.124 1.087-.081 1.377-.55.76-1.232-.467-4.083-1.39-5.224z" fill="#2B2831"/></g><defs><clipPath id="clip0_1_348"><path fill="#fff" d="M0 0h56v56H0z"/></clipPath></defs></svg>