<svg width="56" height="56" fill="none" xmlns="http://www.w3.org/2000/svg"><g clip-path="url(#clip0_1_306)" fill="#2B2831"><path d="M37.333 30.8a5.606 5.606 0 00-5.6 5.6c0 3.089 2.512 5.6 5.6 5.6 3.089 0 5.6-2.511 5.6-5.6 0-3.088-2.511-5.6-5.6-5.6zm0 9.333A3.737 3.737 0 0133.6 36.4a3.737 3.737 0 013.733-3.733 3.737 3.737 0 013.734 3.733 3.737 3.737 0 01-3.734 3.733z"/><path d="M39.2 40.133v3.857l-1.35-.9a.93.93 0 00-1.035 0l-1.348.9v-3.857H33.6v5.6a.933.933 0 001.451.777l2.282-1.521 2.282 1.52a.938.938 0 00.959.047.934.934 0 00.493-.823v-5.6H39.2zm-5.6-30.8H21.467V11.2H33.6V9.333zm9.333 5.6H13.067V16.8h29.866v-1.867zm-9.333 5.6H13.067V22.4H33.6v-1.867zm9.333 0h-5.6V22.4h5.6v-1.867zm0 5.6H13.067V28h29.866v-1.867zm-18.666 5.6h-11.2V33.6h11.2v-1.867zM17.733 36.4h-4.666v1.867h4.666V36.4zm6.534 0h-2.8v1.867h2.8V36.4zM51.333 0a4.672 4.672 0 00-4.666 4.667v1.866c0 .516.417.934.933.934h7.466A.933.933 0 0056 6.533V4.667A4.672 4.672 0 0051.333 0zm2.8 5.6h-5.6v-.933c0-1.544 1.256-2.8 2.8-2.8 1.544 0 2.8 1.256 2.8 2.8V5.6z"/><path d="M51.333 0h-39.2a4.672 4.672 0 00-4.666 4.667v44.8h1.867v-44.8c0-1.544 1.256-2.8 2.8-2.8h35.468a4.642 4.642 0 00-.935 2.8v46.666c0 1.544-1.256 2.8-2.8 2.8H8.4V56h35.467a4.672 4.672 0 004.666-4.667V4.667c0-1.544 1.257-2.8 2.8-2.8a.933.933 0 100-1.867z"/><path d="M43.867 54.133a2.803 2.803 0 01-2.8-2.8v-1.866a.932.932 0 00-.934-.934H.933a.933.933 0 00-.933.934v1.866A4.672 4.672 0 004.667 56h39.2a.932.932 0 100-1.867zm-39.2 0a2.803 2.803 0 01-2.8-2.8V50.4H39.2v.933c0 1.05.348 2.02.935 2.8H4.667z"/></g><defs><clipPath id="clip0_1_306"><path fill="#fff" d="M0 0h56v56H0z"/></clipPath></defs></svg>