<svg width="58" height="47" fill="none" xmlns="http://www.w3.org/2000/svg"><path fill-rule="evenodd" clip-rule="evenodd" d="M11.164 36.667a4.803 4.803 0 01-3.4-1.414 4.8 4.8 0 01-1.415-3.401V19.176c0-2.318.94-4.417 2.46-5.935a8.369 8.369 0 015.935-2.46c2.318 0 4.417.94 5.935 2.46a8.368 8.368 0 012.46 5.935 8.37 8.37 0 01-2.46 5.936A8.368 8.368 0 0113.66 27.5a8.406 8.406 0 01-1.066-.209l-.39-.103V21.13l.814.548c.247.167.517.297.8.384.275.083.57.128.882.128a3.007 3.007 0 003.013-3.013 3.005 3.005 0 00-3.013-3.012 3.008 3.008 0 00-3.013 3.012v17.491h-.523v0zm-2.663-2.152a3.769 3.769 0 002.142 1.072v-16.41c0-1.12.454-2.133 1.188-2.867l.002-.002a4.043 4.043 0 012.867-1.189c1.119 0 2.132.454 2.867 1.189l.002.002a4.042 4.042 0 011.188 2.866 4.041 4.041 0 01-1.188 2.867l-.002.002a4.043 4.043 0 01-4.319.918v3.412a7.39 7.39 0 001.495.151c2.03 0 3.868-.823 5.198-2.153a7.328 7.328 0 002.153-5.198c0-2.03-.823-3.868-2.153-5.197a7.328 7.328 0 00-5.198-2.153c-2.03 0-3.867.823-5.197 2.153a7.328 7.328 0 00-2.153 5.197v12.676c0 1.038.424 1.98 1.108 2.664zm34.04-16.791H57v5.461h-3.577v5.911h-7.826v-5.911H42.02v-5.461h.522v0zm13.415 1.044H43.064v3.373h3.577v5.911h5.738V22.14h3.577v-3.373zM48.73 7.728a51.505 51.505 0 00-8.624-3.694c-3.575-1.148-7.675-1.99-12.008-1.99-7.282 0-14.255 1.9-19.15 5.963-4.221 3.505-6.904 8.64-6.904 15.582 0 6.989 2.543 12.105 6.634 15.567 4.685 3.963 11.412 5.785 18.7 5.785 4.869 0 9.307-.95 13.008-2.178a47.313 47.313 0 008.344-3.698v-7.553c-1.634.919-3.822 1.985-6.29 2.764-2.074.654-4.348 1.107-6.667 1.107-5.787 0-9.428-3.016-11.027-6.89a12.63 12.63 0 01-.934-4.795 12.931 12.931 0 01.912-4.801c1.567-3.914 5.127-6.983 10.567-7.005 2.763-.011 5.485.532 7.932 1.29a39.415 39.415 0 015.507 2.198V7.728v0zm-8.306-4.685C36.754 1.864 32.545 1 28.098 1 20.59 1 13.378 2.977 8.283 7.208 3.83 10.905 1 16.305 1 23.588c0 7.327 2.685 12.707 7.005 16.362 4.886 4.134 11.853 6.034 19.373 6.034 4.985 0 9.537-.975 13.334-2.235a48.276 48.276 0 008.799-3.934l.263-.152v-9.967l-.787.469c-1.628.968-4.052 2.232-6.858 3.116-1.98.625-4.15 1.059-6.356 1.059-5.296 0-8.617-2.733-10.065-6.242a11.581 11.581 0 01-.857-4.4c0-1.509.28-3.02.839-4.414 1.422-3.55 4.656-6.333 9.605-6.353 2.642-.01 5.26.513 7.621 1.246 2.373.736 4.483 1.68 6.1 2.506l.758.387V7.112l-.273-.149a52.62 52.62 0 00-9.077-3.92z" fill="#2B2831" stroke="#2B2831"/></svg>