<svg width="104" height="104" fill="none" xmlns="http://www.w3.org/2000/svg"><path fill="#fff" stroke="#FFB71B" stroke-width="6" d="M3 3h98v98H3z"/><rect x="21" y="21" width="62" height="62" rx="7" stroke="#2B2831" stroke-width="2"/><rect x="33.8" y="33.8" width="36.4" height="36.4" rx="3" fill="#FFB71B" stroke="#2B2831" stroke-width="2"/><circle cx="28" cy="28" r="1.9" fill="#FFB71B" stroke="#2B2831"/><circle cx="40" cy="28" r="1.9" fill="#FFB71B" stroke="#2B2831"/><circle cx="52" cy="28" r="1.9" fill="#FFB71B" stroke="#2B2831"/><circle cx="64" cy="28" r="1.9" fill="#FFB71B" stroke="#2B2831"/><circle cx="76" cy="28" r="1.9" fill="#FFB71B" stroke="#2B2831"/><circle cx="28" cy="76" r="1.9" fill="#FFB71B" stroke="#2B2831"/><circle cx="28" cy="64" r="1.9" fill="#FFB71B" stroke="#2B2831"/><circle cx="28" cy="52" r="1.9" fill="#FFB71B" stroke="#2B2831"/><circle cx="28" cy="40" r="1.9" fill="#FFB71B" stroke="#2B2831"/><circle cx="76" cy="64" r="1.9" fill="#FFB71B" stroke="#2B2831"/><circle cx="76" cy="52" r="1.9" fill="#FFB71B" stroke="#2B2831"/><circle cx="76" cy="40" r="1.9" fill="#FFB71B" stroke="#2B2831"/><circle cx="40" cy="76" r="1.9" fill="#FFB71B" stroke="#2B2831"/><circle cx="52" cy="76" r="1.9" fill="#FFB71B" stroke="#2B2831"/><circle cx="64" cy="76" r="1.9" fill="#FFB71B" stroke="#2B2831"/><circle cx="76" cy="76" r="1.9" fill="#FFB71B" stroke="#2B2831"/><path d="M63.38 41.027c-1.218-1.219-1.627-1.827-2.704-1.827-.565 0-1.097.22-1.497.62L45.02 53.978v-8.953c0-.778-.303-1.509-.852-2.058-1.847-1.846-4.969-.505-4.969 2.058V61.09c0 1.607 1.3 2.91 2.91 2.91h10.334a.814.814 0 100-1.63H42.11a1.28 1.28 0 01-1.28-1.28V45.025c0-1.146 1.387-1.706 2.187-.906.242.242.375.563.375.906v10.92c0 .722.878 1.088 1.39.575l15.549-15.548c.19-.19.5-.19.691 0l1.207 1.207c.19.19.19.5 0 .691L46.68 58.418c-.511.51-.15 1.39.576 1.39h10.919c.706 0 1.281.575 1.281 1.282a1.28 1.28 0 01-1.281 1.281H52.12a.815.815 0 000 1.629h6.055a2.909 2.909 0 002.91-2.91 2.914 2.914 0 00-2.91-2.91h-8.953L63.38 44.021a2.12 2.12 0 000-2.995z" fill="#2B2831"/></svg>