<svg width="104" height="104" fill="none" xmlns="http://www.w3.org/2000/svg"><path fill="#fff" stroke="#FFB71B" stroke-width="6" d="M3 3h98v98H3z"/><rect x="21" y="21" width="62" height="62" rx="31" fill="#fff" stroke="#2B2831" stroke-width="2"/><path fill-rule="evenodd" clip-rule="evenodd" d="M45.786 20.8l-25 25.5 1.428 1.4 25-25.5-1.428-1.4zm13.517.984l-38 37 1.395 1.432 38-37-1.395-1.432zm-34.01 46.509l43-43 1.415 1.414-43 43-1.414-1.414zm50.5-36.5l-44 44 1.415 1.414 44-44-1.414-1.414zm-34.99 48.491l40-39 1.395 1.432-40 39-1.396-1.432zm41.503-26.003l-29 28 1.389 1.438 29-28-1.39-1.438z" fill="#2B2831"/><rect x="33" y="33" width="38" height="38" rx="19" fill="#FFB71B" stroke="#2B2831" stroke-width="2"/><circle cx="52" cy="33.625" r="2.125" fill="#fff" stroke="#2B2831"/><circle cx="52" cy="70.375" r="2.125" fill="#fff" stroke="#2B2831"/><circle cx="70.375" cy="52" r="2.125" transform="rotate(90 70.375 52)" fill="#fff" stroke="#2B2831"/><circle cx="33.625" cy="52" r="2.125" transform="rotate(90 33.625 52)" fill="#fff" stroke="#2B2831"/><circle cx="64.993" cy="64.993" r="2.125" transform="rotate(135 64.993 64.993)" fill="#fff" stroke="#2B2831"/><circle cx="39.007" cy="39.007" r="2.125" transform="rotate(135 39.007 39.007)" fill="#fff" stroke="#2B2831"/><circle cx="39.007" cy="64.993" r="2.125" transform="rotate(-135 39.007 64.993)" fill="#fff" stroke="#2B2831"/><circle cx="64.993" cy="39.007" r="2.125" transform="rotate(-135 64.993 39.007)" fill="#fff" stroke="#2B2831"/><path d="M51.354 55.12v-.5h-3.456l1.338-1.263c.661-.614 1.147-1.196 1.41-1.745.258-.536.386-1.11.386-1.714 0-.678-.179-1.29-.552-1.812-.358-.524-.86-.915-1.484-1.18-.618-.276-1.323-.406-2.104-.406-.93 0-1.776.175-2.526.54-.745.352-1.344.851-1.781 1.501l-.284.423.428.276 1.652 1.064.4.258.278-.387a1.67 1.67 0 01.67-.565h0l.01-.004c.27-.132.58-.202.943-.202.455 0 .709.097.845.208l.007.006.008.006c.126.096.208.235.208.498 0 .18-.046.379-.156.6-.102.195-.324.475-.71.843l-.001.001-3.778 3.569-.157.148v2.185h8.406V55.12zm1.887-.112h0l.003.007c.4.83.958 1.484 1.681 1.942.721.456 1.539.679 2.438.679.898 0 1.716-.223 2.437-.68.724-.457 1.278-1.113 1.669-1.945.402-.846.593-1.832.593-2.943 0-1.11-.19-2.091-.593-2.93-.39-.84-.945-1.5-1.67-1.959-.72-.456-1.538-.679-2.437-.679-.898 0-1.716.223-2.437.68-.724.458-1.283 1.118-1.682 1.957l-.001.003c-.393.837-.58 1.819-.58 2.928 0 1.11.187 2.095.579 2.94zm5.107-.84h0l-.004.006c-.247.377-.558.544-.982.544-.41 0-.725-.165-.983-.546-.255-.392-.42-1.066-.42-2.104s.165-1.712.42-2.104c.258-.381.573-.546.983-.546.424 0 .735.167.982.544h0l.004.005c.262.39.433 1.063.433 2.101s-.171 1.711-.433 2.1z" fill="#fff" stroke="#2B2831"/></svg>