<svg width="104" height="104" fill="none" xmlns="http://www.w3.org/2000/svg"><path fill="#fff" stroke="#FFB71B" stroke-width="6" d="M3 3h98v98H3z"/><rect x="21" y="28" width="62" height="48" rx="3" fill="#fff" stroke="#2B2831" stroke-width="2"/><rect x="27" y="34" width="50" height="36" rx="1" fill="#FFB71B" stroke="#2B2831" stroke-width="2"/><g clip-path="url(#clip0_1_210)"><path d="M57 63.998c0 .582-.472 1.054-1.055 1.054h-24.89a1.055 1.055 0 110-2.109H42.46l-.013-4.515-2.887-1.444-2.548 2.548c-.337.337-.864.41-1.283.162l-5.211-3.085a1.055 1.055 0 111.074-1.816l4.508 2.669 2.414-2.415 2.621-4.365-1.918-1.915-2.393 1.59a1.054 1.054 0 11-1.167-1.757l3.111-2.067a1.055 1.055 0 011.329.132l5.614 5.605 2.39-1.595a1.055 1.055 0 011.17 1.755l-3.108 2.074c-.42.28-.976.223-1.33-.13l-2.16-2.156-1.83 3.05 3.129 1.564c.356.178.582.542.583.94l.014 5.171h6.173v-22.78H36.258v5.17a1.055 1.055 0 11-2.11 0v-6.226c0-.582.473-1.054 1.055-1.054h16.594c.582 0 1.055.472 1.055 1.054v23.836h3.093c.583 0 1.055.472 1.055 1.055zM45.578 48.466a3.136 3.136 0 01-3.132-3.133 3.136 3.136 0 013.132-3.132 3.136 3.136 0 013.132 3.132 3.136 3.136 0 01-3.132 3.133zm0-2.11a1.024 1.024 0 000-2.045 1.024 1.024 0 000 2.045z" fill="#2B2831"/></g><path d="M72.707 52.707a1 1 0 000-1.414l-6.364-6.364a1 1 0 00-1.414 1.414L70.586 52l-5.657 5.657a1 1 0 001.414 1.414l6.364-6.364zM58 53h14v-2H58v2z" fill="#2B2831"/><defs><clipPath id="clip0_1_210"><path fill="#fff" transform="translate(30 38)" d="M0 0h27v27H0z"/></clipPath></defs></svg>