<svg width="56" height="56" fill="none" xmlns="http://www.w3.org/2000/svg"><g clip-path="url(#clip0_1_279)" fill="#2B2831"><path d="M42.91 24.727a3.219 3.219 0 00-3.214-3.215h-5.909c1.436-1.614 2.374-3.451 2.555-5.1a3.545 3.545 0 00-.853-2.742 3.082 3.082 0 00-2.3-1.055h-.03c-.857 0-1.66.33-2.267.93a3.175 3.175 0 00-.947 2.258c-.031.187-.36.832-1.166 1.598-.66.627-1.799 1.49-3.48 2.036-.66.214-1.263.608-1.792 1.172-.278.295-.694.703-1.209 1.113a1.8 1.8 0 00-.845-.21h-5.612c-.999 0-1.812.813-1.812 1.812v14.964c0 1 .813 1.812 1.812 1.812h5.612c.681 0 1.275-.378 1.585-.935h14.32a2.75 2.75 0 002.747-2.747c0-.51-.14-.987-.382-1.396a2.748 2.748 0 00.935-3.742 2.748 2.748 0 00.84-3.892 3.215 3.215 0 001.413-2.662zm-3.214 1.46h-.468a.877.877 0 000 1.755.995.995 0 010 1.987h-.935a.877.877 0 000 1.754.995.995 0 010 1.987h-.935a.877.877 0 100 1.754.995.995 0 010 1.988H23.265v-8.476a.877.877 0 00-1.753 0v9.352a.058.058 0 01-.059.059h-5.612a.058.058 0 01-.058-.059V23.324c0-.033.026-.059.058-.059h5.612c.032 0 .059.026.059.058v1.871a.877.877 0 001.753 0v-1.87a1.77 1.77 0 00-.006-.127 13.307 13.307 0 001.526-1.388c.325-.346.68-.583 1.055-.704 2.064-.67 3.453-1.75 4.254-2.536 1.005-.987 1.604-2.015 1.604-2.751 0-.39.152-.754.428-1.027a1.47 1.47 0 011.047-.423c.492.005.817.256 1.004.466.32.36.477.88.422 1.387-.192 1.742-1.585 3.895-3.55 5.486a.877.877 0 00.552 1.558h8.095a1.463 1.463 0 010 2.923z"/><path d="M18.647 34.596a.885.885 0 00-.881.881c0 .485.397.882.881.882a.885.885 0 00.882-.882.885.885 0 00-.882-.881z"/><path d="M54.437 28l1.506-3.985a.877.877 0 00-.136-.859l-2.664-3.325.2-4.256a.877.877 0 00-.394-.775l-3.561-2.34-1.124-4.11a.877.877 0 00-.615-.614l-4.11-1.124-2.34-3.561a.878.878 0 00-.773-.394l-4.257.2L32.844.193a.877.877 0 00-.858-.136L28 1.563 24.014.057a.876.876 0 00-.858.136L19.83 2.857l-4.256-.2a.875.875 0 00-.774.394l-2.34 3.561-4.11 1.125a.877.877 0 00-.614.614l-1.124 4.11-3.562 2.34a.877.877 0 00-.394.774l.2 4.256-2.663 3.325a.877.877 0 00-.136.859L1.563 28 .056 31.986a.877.877 0 00.136.859l2.665 3.325-.201 4.256a.877.877 0 00.394.774l3.562 2.34 1.124 4.11a.877.877 0 00.614.614l4.11 1.124 2.34 3.562a.88.88 0 00.774.394l4.256-.2 3.326 2.664a.876.876 0 00.858.136L28 54.437l3.986 1.507a.88.88 0 00.858-.136l3.325-2.664 4.257.2a.878.878 0 00.774-.394l2.34-3.562 4.11-1.124a.877.877 0 00.614-.614l1.124-4.11 3.561-2.34c.26-.17.41-.464.395-.774l-.201-4.256 2.664-3.325a.877.877 0 00.136-.859L54.437 28zm-1.758.31l1.447 3.828-2.559 3.194a.877.877 0 00-.191.59l.193 4.087-3.42 2.247a.877.877 0 00-.365.502l-1.08 3.947-3.947 1.08a.877.877 0 00-.502.364l-2.246 3.42-4.088-.193a.878.878 0 00-.59.192l-3.193 2.559-3.828-1.447a.878.878 0 00-.62 0l-3.828 1.447-3.194-2.56a.878.878 0 00-.59-.19l-4.087.192-2.247-3.42a.877.877 0 00-.501-.365l-3.948-1.08-1.08-3.947a.878.878 0 00-.364-.501l-3.42-2.247.193-4.087a.876.876 0 00-.192-.59l-2.558-3.194L3.32 28.31a.877.877 0 000-.62l-1.446-3.828 2.558-3.193a.876.876 0 00.192-.59l-.193-4.087 3.42-2.247a.877.877 0 00.365-.502l1.08-3.947 3.947-1.08a.878.878 0 00.501-.364l2.247-3.42 4.088.193a.878.878 0 00.59-.192l3.193-2.559 3.828 1.447c.2.076.42.076.62 0l3.828-1.447 3.193 2.56a.876.876 0 00.59.19l4.088-.192 2.246 3.42a.877.877 0 00.502.364l3.947 1.08 1.08 3.947a.877.877 0 00.364.502l3.42 2.247-.192 4.087a.877.877 0 00.191.59l2.559 3.194-1.447 3.828a.877.877 0 000 .62z"/><path d="M44.476 12.86a22.85 22.85 0 00-1.376-1.375.877.877 0 10-1.186 1.291 21.192 21.192 0 011.27 1.27.874.874 0 001.239.053.877.877 0 00.053-1.24zm-4.489-3.768A22.472 22.472 0 0025.652 5.72a22.438 22.438 0 00-13.511 6.437 22.322 22.322 0 00-6.54 14.92 22.315 22.315 0 005.223 15.308.875.875 0 001.236.106.877.877 0 00.106-1.236 20.565 20.565 0 01-4.812-14.107 20.572 20.572 0 016.027-13.75 20.677 20.677 0 0112.452-5.934 20.709 20.709 0 0113.211 3.107.877.877 0 10.943-1.48zm6.881 6.881a.877.877 0 10-1.479.943 20.71 20.71 0 013.107 13.211 20.68 20.68 0 01-5.933 12.452 20.573 20.573 0 01-13.75 6.027 20.561 20.561 0 01-14.108-4.812.877.877 0 10-1.13 1.342 22.301 22.301 0 0015.308 5.222 22.321 22.321 0 0014.92-6.539 22.437 22.437 0 006.438-13.51 22.471 22.471 0 00-3.373-14.336z"/></g><defs><clipPath id="clip0_1_279"><path fill="#fff" d="M0 0h56v56H0z"/></clipPath></defs></svg>