<svg width="56" height="56" fill="none" xmlns="http://www.w3.org/2000/svg"><g clip-path="url(#clip0_1_259)" fill="#2B2831"><path d="M40.133 23.333c-8.763 0-15.866 7.104-15.866 15.867 0 8.763 7.104 15.867 15.866 15.867C48.896 55.067 56 47.963 56 39.2c-.01-8.759-7.108-15.857-15.867-15.867zm0 29.867c-7.732 0-14-6.268-14-14s6.268-14 14-14 14 6.268 14 14c-.008 7.728-6.272 13.991-14 14z"/><path d="M41.067 36.572V30.8H39.2v5.772a2.797 2.797 0 00-1.695 1.695H33.6v1.866h3.905a2.794 2.794 0 103.562-3.561zm-.934 3.561a.933.933 0 110-1.866.933.933 0 010 1.866zM28 38.267h1.867v1.866H28v-1.866zm11.2 11.2h1.867v1.866H39.2v-1.866zm11.2-11.2h1.867v1.866H50.4v-1.866zm-11.2-11.2h1.867v1.866H39.2v-1.866z"/><path d="M1.867 41.067V14H44.8v8.4h1.867V9.333A4.672 4.672 0 0042 4.667h-6.533v-.934a2.8 2.8 0 00-5.6 0v.934H16.8v-.934a2.8 2.8 0 00-5.6 0v.934H4.667A4.672 4.672 0 000 9.333v31.734a4.672 4.672 0 004.667 4.666h18.666v-1.866H4.667a2.8 2.8 0 01-2.8-2.8zM31.733 3.733a.933.933 0 011.867 0v3.734a.933.933 0 01-1.867 0V3.733zm-18.666 0a.933.933 0 011.866 0v3.734a.933.933 0 01-1.866 0V3.733zm-8.4 2.8H11.2v.934a2.8 2.8 0 005.6 0v-.934h13.067v.934a2.8 2.8 0 005.6 0v-.934H42a2.8 2.8 0 012.8 2.8v2.8H1.867v-2.8a2.8 2.8 0 012.8-2.8z"/><path d="M13.067 21.467A1.867 1.867 0 0011.2 19.6H7.467A1.867 1.867 0 005.6 21.467V25.2c0 1.031.836 1.867 1.867 1.867H11.2a1.867 1.867 0 001.867-1.867v-3.733zm-5.6 3.733v-3.733H11.2V25.2H7.467zM22.4 21.467a1.867 1.867 0 00-1.867-1.867H16.8c-1.03 0-1.867.836-1.867 1.867V25.2c0 1.031.836 1.867 1.867 1.867h3.733A1.867 1.867 0 0022.4 25.2v-3.733zM16.8 25.2v-3.733h3.733V25.2H16.8zm14.933-.933v-2.8a1.866 1.866 0 00-1.866-1.867h-3.734c-1.03 0-1.866.836-1.866 1.867V25.2c0 1.031.835 1.867 1.866 1.867H28V25.2h-1.867v-3.733h3.734v2.8h1.866zM11.2 30.8H7.467A1.867 1.867 0 005.6 32.667V36.4c0 1.03.836 1.867 1.867 1.867H11.2a1.867 1.867 0 001.867-1.867v-3.733A1.867 1.867 0 0011.2 30.8zm-3.733 5.6v-3.733H11.2V36.4H7.467zm13.066-5.6H16.8c-1.03 0-1.867.836-1.867 1.867V36.4c0 1.03.836 1.867 1.867 1.867h3.733A1.867 1.867 0 0022.4 36.4v-3.733a1.867 1.867 0 00-1.867-1.867zM16.8 36.4v-3.733h3.733V36.4H16.8zm24.267-14v-.933A1.867 1.867 0 0039.2 19.6h-3.733a1.867 1.867 0 00-1.867 1.867v.933h1.867v-.933H39.2v.933h1.867z"/></g><defs><clipPath id="clip0_1_259"><path fill="#fff" d="M0 0h56v56H0z"/></clipPath></defs></svg>