<svg width="56" height="56" fill="none" xmlns="http://www.w3.org/2000/svg"><g clip-path="url(#clip0_1_394)" fill="#2B2831"><path d="M38.065 16.97a1.094 1.094 0 100 2.186 1.094 1.094 0 100-2.187zM18.153 36.842a1.094 1.094 0 100 2.187 1.094 1.094 0 100-2.187z"/><path d="M54.8 6.729a1.096 1.096 0 00-1.025.295l-4.543 4.57h-2.178l-2.398-2.48V6.91l4.478-4.536a1.092 1.092 0 00-.43-1.804 10.95 10.95 0 00-3.5-.57c-3.57 0-6.812 1.661-8.897 4.558-1.951 2.71-2.553 6.034-1.69 9.213l-8.073 8.057L13.095 8.375v-2.64c0-.384-.202-.74-.532-.938L4.814.156a1.097 1.097 0 00-1.338.165l-3.1 3.092A1.093 1.093 0 00.212 4.75l4.649 7.733c.197.33.554.531.939.531l2.644.001 13.45 13.453-8.041 8.026c-3.186-.86-6.517-.258-9.235 1.69-2.9 2.08-4.564 5.315-4.564 8.878 0 1.194.193 2.37.572 3.492a1.094 1.094 0 001.816.421l4.543-4.57h2.19l2.495 2.49v2.187l-4.578 4.534a1.092 1.092 0 00.422 1.813c1.124.378 2.302.57 3.499.57 3.57 0 6.81-1.66 8.895-4.555 1.952-2.713 2.554-6.037 1.693-9.217l6.459-6.445 1.479 1.603-.679.678a1.092 1.092 0 000 1.547 1.098 1.098 0 001.55 0l.615-.614 13.88 15.049.033.032a6.583 6.583 0 009.3 0 6.563 6.563 0 000-9.281l-.035-.033-15.102-13.827.608-.607a1.092 1.092 0 000-1.547 1.098 1.098 0 00-1.55 0l-.674.674-1.61-1.475 6.49-6.477a11 11 0 002.839.37c6.043 0 10.958-4.906 10.958-10.936a10.9 10.9 0 00-.571-3.493c-.121-.36-.42-.63-.79-.716zm-45.125 4.42a1.086 1.086 0 00-.776-.31H6.421L2.53 4.356 4.42 2.47l6.482 3.883v2.474c0 .29.115.567.32.772l13.771 13.775-1.55 1.547-13.77-13.773zM37.55 32.484l15.153 13.874a4.377 4.377 0 01-.016 6.173 4.39 4.39 0 01-6.185.014L32.576 37.448l4.974-4.964zm-1.616-1.48l-4.844 4.833-1.48-1.604 4.714-4.704 1.61 1.475zm9.27-11.317a8.773 8.773 0 01-2.801-.456 1.1 1.1 0 00-1.125.263l-21.691 21.65a1.092 1.092 0 00-.264 1.122c.911 2.7.476 5.58-1.196 7.902a8.672 8.672 0 01-7.114 3.643c-.32 0-.64-.017-.956-.05l3.481-3.448c.207-.205.324-.484.324-.776v-3.094c0-.29-.115-.569-.32-.774l-3.138-3.131a1.097 1.097 0 00-.775-.32h-3.1c-.293 0-.573.116-.778.323l-3.454 3.474a8.83 8.83 0 01-.051-.954c0-2.849 1.33-5.437 3.65-7.1 2.327-1.668 5.212-2.103 7.918-1.194.394.133.83.031 1.124-.263L36.63 14.855c.294-.294.396-.728.264-1.122-.912-2.7-.477-5.579 1.193-7.9a8.673 8.673 0 017.116-3.645c.33 0 .66.018.985.054l-3.409 3.452c-.202.205-.315.48-.315.768v3.094c0 .284.11.556.308.76l3.027 3.13c.207.215.491.335.789.335h3.1c.292 0 .572-.116.778-.324l3.453-3.473c.034.315.052.634.052.954 0 4.824-3.933 8.75-8.767 8.75z"/><path d="M34.19 20.383L20.478 34.069a1.093 1.093 0 000 1.547 1.098 1.098 0 001.55 0L35.741 21.93a1.092 1.092 0 000-1.546 1.097 1.097 0 00-1.55 0zm13.849 29.055a1.098 1.098 0 001.55-.003 1.092 1.092 0 00-.002-1.547l-9.879-9.827a1.097 1.097 0 00-1.55.003 1.092 1.092 0 00.003 1.546l9.878 9.828z"/></g><defs><clipPath id="clip0_1_394"><path fill="#fff" d="M0 0h56v56H0z"/></clipPath></defs></svg>