<svg width="56" height="56" fill="none" xmlns="http://www.w3.org/2000/svg"><g clip-path="url(#clip0_1_300)" fill="#2B2831"><path d="M47.213 9.21a26.215 26.215 0 01-5.034-1.143.82.82 0 00-.522 1.555c1.71.574 3.51.982 5.35 1.215 2.762.35 4.732 2.898 4.393 5.68-.445 3.649-1.26 9.095-2.613 14.32-1.474 5.69-3.205 9.649-5.143 11.767-3.98 4.35-8.971 8.206-12.457 10.674a5.305 5.305 0 01-6.123 0c-3.486-2.468-8.477-6.324-12.457-10.674-1.939-2.118-3.67-6.077-5.144-11.768-1.353-5.224-2.167-10.67-2.613-14.32-.338-2.781 1.632-5.33 4.393-5.679 7.96-1.006 13.234-5.006 16.258-8.183a3.59 3.59 0 012.624-1.123c1.003 0 1.935.4 2.624 1.123a26.912 26.912 0 007.485 5.548.82.82 0 00.733-1.467 25.29 25.29 0 01-7.03-5.212 5.215 5.215 0 00-3.812-1.632c-1.456 0-2.81.58-3.812 1.632-2.84 2.984-7.796 6.74-15.276 7.686-3.655.463-6.263 3.83-5.815 7.507.764 6.266 3.09 21.44 8.174 26.996 4.079 4.457 9.168 8.39 12.719 10.905a6.93 6.93 0 004.01 1.274 6.934 6.934 0 004.01-1.274c3.551-2.515 8.64-6.448 12.719-10.905 5.085-5.556 7.41-20.73 8.175-26.996.448-3.677-2.161-7.044-5.816-7.507z"/><path d="M26.274 7.596c-4.15 3.591-8.994 5.942-14.398 6.986a3.17 3.17 0 00-2.531 3.545c.382 2.807 1.164 8.058 2.102 11.677 1.71 6.6 3.362 9.112 4.195 10.022 2.739 2.993 7.82 6.991 10.606 9.108a3.1 3.1 0 001.877.63 3.1 3.1 0 001.878-.63c2.785-2.117 7.866-6.115 10.605-9.108.833-.91 2.486-3.422 4.196-10.022.938-3.62 1.72-8.87 2.102-11.677a3.17 3.17 0 00-2.531-3.545c-5.405-1.044-10.25-3.395-14.399-6.986a2.844 2.844 0 00-3.702 0zM45.28 17.905c-.377 2.772-1.148 7.949-2.065 11.488-1.728 6.67-3.359 8.824-3.817 9.326-2.751 3.005-8.181 7.231-10.389 8.909a1.465 1.465 0 01-1.768 0c-2.207-1.678-7.638-5.904-10.388-8.91-.46-.5-2.09-2.654-3.818-9.325-.917-3.538-1.687-8.716-2.065-11.488a1.529 1.529 0 011.217-1.712c5.69-1.1 10.791-3.574 15.161-7.356.221-.192.5-.288.777-.288.278 0 .556.096.777.288 4.37 3.782 9.471 6.256 15.162 7.356a1.53 1.53 0 011.216 1.712z"/><path d="M23.576 25.492c-.617-.503-2.7-1.54-4.19.43-1.491 1.97-.187 3.688.43 4.19l2.379 1.936a.82.82 0 101.035-1.273l-2.379-1.935c-.276-.226-.881-.96-.193-1.883.689-.922 1.605-.419 1.882-.193l4.926 4.008a.82.82 0 001.095-.054l7.208-7.14a1.34 1.34 0 011.892.009 1.34 1.34 0 01-.009 1.891l-8.585 8.506c-.68.655-1.428.382-1.786.087l-1.363-1.109a.821.821 0 00-1.036 1.273l1.363 1.109c.53.43 1.197.668 1.88.668a2.96 2.96 0 002.097-.862l8.585-8.506a2.982 2.982 0 00.02-4.212 2.982 2.982 0 00-4.213-.02l-6.684 6.622-4.354-3.542z"/></g><defs><clipPath id="clip0_1_300"><path fill="#fff" d="M0 0h56v56H0z"/></clipPath></defs></svg>