<svg width="56" height="56" fill="none" xmlns="http://www.w3.org/2000/svg"><path d="M13.067 36.867a5.606 5.606 0 00-5.6 5.6c0 3.088 2.511 5.6 5.6 5.6 3.088 0 5.6-2.512 5.6-5.6 0-3.089-2.512-5.6-5.6-5.6zm0 9.333a3.737 3.737 0 01-3.733-3.733 3.737 3.737 0 013.733-3.734 3.737 3.737 0 013.733 3.734 3.737 3.737 0 01-3.733 3.733zM44.8 36.867a5.606 5.606 0 00-5.6 5.6c0 3.088 2.511 5.6 5.6 5.6 3.088 0 5.6-2.512 5.6-5.6 0-3.089-2.512-5.6-5.6-5.6zm0 9.333a3.737 3.737 0 01-3.733-3.733 3.737 3.737 0 013.733-3.734 3.737 3.737 0 013.733 3.734A3.737 3.737 0 0144.8 46.2z" fill="#2B2831"/><path d="M55.852 31.695l-8.4-13.067a.933.933 0 00-.785-.428H36.4a.933.933 0 00-.933.933v23.334c0 .516.417.933.933.933h3.733v-1.867h-2.8V20.067h8.824l7.976 12.407v9.06h-4.666V43.4h5.6a.932.932 0 00.933-.933V32.2a.931.931 0 00-.148-.505z" fill="#2B2831"/><path d="M41.067 30.333V23.8h7.466v-1.867h-8.4a.933.933 0 00-.933.934v8.4c0 .516.417.933.933.933h14v-1.867H41.067zM36.4 11.667H.933A.934.934 0 000 12.6v29.867c0 .516.418.933.933.933H8.4v-1.867H1.867v-28h33.6v28H17.733V43.4H36.4a.932.932 0 00.933-.933V12.6a.933.933 0 00-.933-.933z" fill="#2B2831"/><path d="M6.533 37.8h-5.6v1.867h5.6V37.8zm28.934 0H19.6v1.867h15.867V37.8zm19.599 0h-3.733v1.867h3.733V37.8zM36.4 15.4H3.733v1.867H36.4V15.4zM14 41.533h-1.867V43.4H14v-1.867zm31.733 0h-1.866V43.4h1.866v-1.867zM16.8 7.933H3.733V9.8H16.8V7.933zm-14.933 0H0V9.8h1.867V7.933z" fill="#2B2831"/></svg>