<svg width="104" height="104" fill="none" xmlns="http://www.w3.org/2000/svg"><path fill="#fff" stroke="#FFB71B" stroke-width="6" d="M3 3h98v98H3z"/><path d="M53.936 32.649L75.732 70.4H32.14l21.796-37.752z" fill="#C4C4C4"/><path d="M54.484 23.43l28.122 48.433c1.112 1.914-.27 4.314-2.484 4.314H23.878c-2.214 0-3.596-2.4-2.484-4.314L49.516 23.43c1.107-1.907 3.86-1.907 4.968 0z" stroke="#2B2831" stroke-width="2"/><path d="M54.595 31.372L75.723 67.8c1.16 2-.283 4.506-2.595 4.506H30.872c-2.312 0-3.755-2.506-2.595-4.506l21.128-36.427c1.156-1.993 4.034-1.993 5.19 0z" fill="#FFB71B" stroke="#2B2831" stroke-width="2"/><path fill-rule="evenodd" clip-rule="evenodd" d="M47.76 46.314a2.646 2.646 0 00-2.644 2.643 2.646 2.646 0 002.643 2.644 2.646 2.646 0 002.644-2.644 2.647 2.647 0 00-2.644-2.643zm-5.793 9.618a1.322 1.322 0 00-1.816.459l-5.388 9.074a1.323 1.323 0 001.136 1.997h10.538c.73 0 1.322-.592 1.322-1.322 0-4.185-2.202-8.053-5.792-10.208zm-3.746 8.886l3.475-5.852a9.342 9.342 0 013.323 5.852H38.22zm20.108-4.512l4.9 4.9a1.322 1.322 0 01-1.87 1.87l-5.286-5.288a1.322 1.322 0 01-.388-.935v-2.096l-2.643 2.644v4.74a1.322 1.322 0 01-2.644 0v-5.288c0-.35.14-.686.388-.934l4.352-4.353-2.84-2.84-1.967 5.902a1.322 1.322 0 11-2.508-.836l2.635-7.905c.165-.532.657-.93 1.262-.93h7.93c.73 0 1.322.592 1.322 1.322v2.644a1.322 1.322 0 01-2.643 0V51.6h-3.418l3.03 3.03c.256.255.388.603.388.936v4.739z" fill="#2B2831"/></svg>