<svg width="104" height="104" fill="none" xmlns="http://www.w3.org/2000/svg"><path fill="#fff" stroke="#FFB71B" stroke-width="6" d="M3 3h98v98H3z"/><path d="M46.721 23.68a7.467 7.467 0 0110.56 0l23.041 23.04a7.467 7.467 0 010 10.56l-23.04 23.04a7.467 7.467 0 01-10.56 0L23.68 57.282a7.467 7.467 0 010-10.56L46.721 23.68z" fill="#fff"/><path d="M81.439 45.812L58.186 22.56c-3.413-3.412-8.964-3.412-12.377 0L30.495 37.874a1.25 1.25 0 101.768 1.768l15.314-15.315a6.258 6.258 0 018.84 0L79.67 47.58A6.21 6.21 0 0181.501 52c0 1.67-.65 3.24-1.83 4.42L56.416 79.673a6.257 6.257 0 01-8.84 0L24.324 56.42c-2.429-2.43-2.435-6.389-.013-8.826a1.25 1.25 0 10-1.773-1.762c-3.392 3.412-3.383 8.954.019 12.356L45.81 81.44A8.723 8.723 0 0051.997 84a8.724 8.724 0 006.188-2.56L81.44 58.189A8.694 8.694 0 0084.002 52c0-2.338-.91-4.535-2.563-6.188z" fill="#2B2831"/><path d="M26.72 43.763a1.261 1.261 0 001.428-.028c.414-.3.604-.841.472-1.334a1.26 1.26 0 00-1.14-.925 1.26 1.26 0 00-1.229.788 1.258 1.258 0 00.468 1.499z" fill="#2B2831"/><rect x="52.092" y="28.614" width="33.201" height="33.201" rx="5" transform="rotate(45 52.092 28.614)" fill="#FFB71B" stroke="#2B2831" stroke-width="2"/></svg>